Coordinates
version=1
nRows=4
nColumns=63
inDegrees=yes

Units are S.I. units (second, meters, Newtons, ...)
If the header above contains a line with 'inDegrees', this indicates whether rotational values are in degrees (yes) or radians (no).

endheader
time	pelvis_tilt	pelvis_list	pelvis_rotation	pelvis_tx	pelvis_ty	pelvis_tz	hip_flexion_r	hip_adduction_r	hip_rotation_r	knee_angle_r	knee_angle_r_beta	ankle_angle_r	subtalar_angle_r	mtp_angle_r	hip_flexion_l	hip_adduction_l	hip_rotation_l	knee_angle_l	knee_angle_l_beta	ankle_angle_l	subtalar_angle_l	mtp_angle_l	L5_S1_Flex_Ext	L5_S1_Lat_Bending	L5_S1_axial_rotation	L4_L5_Flex_Ext	L4_L5_Lat_Bending	L4_L5_axial_rotation	L3_L4_Flex_Ext	L3_L4_Lat_Bending	L3_L4_axial_rotation	L2_L3_Flex_Ext	L2_L3_Lat_Bending	L2_L3_axial_rotation	L1_L2_Flex_Ext	L1_L2_Lat_Bending	L1_L2_axial_rotation	L1_T12_Flex_Ext	L1_T12_Lat_Bending	L1_T12_axial_rotation	Abs_r3	Abs_r2	Abs_r1	Abs_t1	Abs_t2	neck_flexion	neck_bending	neck_rotation	arm_flex_r	arm_add_r	arm_rot_r	elbow_flex_r	pro_sup_r	wrist_flex_r	wrist_dev_r	arm_flex_l	arm_add_l	arm_rot_l	elbow_flex_l	pro_sup_l	wrist_flex_l	wrist_dev_l
      1.73809524	      4.10990029	      3.44299278	     85.48962362	      0.21286229	      0.68900267	      0.90357807	      2.81413959	      5.03395719	     14.55099076	     13.73985428	      0.23980570	     19.47297716	    -10.27060445	      0.00000000	     -3.05526261	     -6.03662197	    -13.24061990	      7.31556043	      0.12768062	     27.31944571	      1.84891956	      0.00000000	      0.00002881	      0.83782164	      3.44706790	      0.00005350	      1.11430277	      3.66250964	      0.00004733	      2.03707952	      3.66250964	      0.00003292	      2.03707952	      3.01618441	      0.00002675	      1.70848588	      2.80074267	      0.00001646	      1.29778571	      2.58530092	      0.00020577	      9.47760590	     19.17155752	      0.00000000	      0.00000000	     25.37838273	     -9.21101929	     -6.00182604	     -5.07519973	    -13.54075101	     16.82453694	     39.88953873	     86.33690686	    -12.26006870	     -5.69321861	     49.10414412	      3.52553900	     -8.38635471	    146.32116625	     87.73459456	     -6.61322689	      1.81360325
      1.76190476	      4.06001861	      3.38220399	     84.99037370	      0.21411424	      0.68821385	      0.90323319	      3.20346147	      5.18707162	     15.24923564	     14.31771194	      0.24989121	     20.08005912	    -11.02641567	      0.00000000	     -2.75910305	     -6.11116147	    -13.72591831	      8.09208811	      0.14123358	     27.99412280	      2.04477829	      0.00000000	      0.00099784	      0.80723085	      3.53679364	      0.00185309	      1.07361703	      3.75784324	      0.00163935	      1.96270109	      3.75784324	      0.00114043	      1.96270109	      3.09469443	      0.00092660	      1.64610515	      2.87364483	      0.00057017	      1.25040059	      2.65259523	      0.00712748	      9.13155682	     19.67058518	      0.00000000	      0.00000000	     23.91059701	    -10.23634152	     -9.05075361	     -4.87092182	    -13.21241222	     16.86949040	     39.81342078	     85.57585352	    -11.33814103	     -4.71030522	     46.08558970	      5.27697434	     -7.85359524	    145.86337003	     86.54387217	     -6.01232778	      2.92652146
      1.78571429	      3.98783644	      3.40749992	     84.33140718	      0.21522008	      0.68725447	      0.90315249	      3.55547560	      5.34786714	     16.25792940	     14.95068914	      0.26093875	     20.80845661	    -12.02600762	      0.00000000	     -2.52466050	     -6.17630770	    -14.73609783	      8.89483089	      0.15524409	     28.93204325	      2.96812649	      0.00000000	     -0.03309902	      0.78239549	      3.64944455	     -0.06146818	      1.04058600	      3.87753483	     -0.05437837	      1.90231639	      3.87753483	     -0.03782887	      1.90231639	      3.19326398	     -0.03073575	      1.59546088	      2.96517369	     -0.01891278	      1.21193061	      2.73708341	     -0.23642297	      8.85061425	     20.29711573	      0.00000000	      0.00000000	     22.23303139	    -11.11755385	    -11.53993715	     -4.69767641	    -12.78723908	     16.28507576	     39.84520985	     84.71104971	    -10.08717449	     -3.46357910	     43.05160131	      6.69314859	     -7.11647455	    145.29908225	     84.22067883	     -4.23846189	      5.11818405
      1.80952381	      3.94209006	      3.33259296	     83.78613640	      0.21588725	      0.68598390	      0.90328984	      4.10585741	      5.51072492	     16.75985200	     15.71169226	      0.27422076	     21.80472398	    -12.36173248	      0.00000000	     -2.04372019	     -6.27449519	    -15.18940416	      9.77370314	      0.17058330	     29.97116610	      3.38659029	      0.00000000	     -0.05739270	      0.77298782	      3.67546792	     -0.10658399	      1.02807380	      3.90518467	     -0.09429047	      1.87944258	      3.90518467	     -0.06559412	      1.87944258	      3.21603443	     -0.05329486	      1.57627676	      2.98631769	     -0.03279419	      1.19735813	      2.75660094	     -0.40995033	      8.74419278	     20.44184995	      0.00000000	      0.00000000	     20.57217079	    -11.73071104	    -12.71447050	     -4.35682489	    -12.56053596	     16.26854517	     39.99901318	     84.03739207	     -9.17376256	     -1.74821773	     40.11890001	      7.33149989	     -5.99013508	    144.70259085	     82.01243154	     -3.75382305	      6.26286602
